<svg xmlns="http://www.w3.org/2000/svg" viewBox="0 0 82.75 64.59"><defs><style>.cls-1{fill:#00ffab;}.cls-2{fill:none;stroke:#151918;stroke-miterlimit:10;}</style></defs><g id="Layer_2" data-name="Layer 2"><g id="Call_to_Action" data-name="Call to Action"><path id="Blob" class="cls-1" d="M66.76,32.06c-9.5,13.57-15,39-27,31-13.78-9.19-30-13.43-30-30s17.14-19.55,30-30C55.76-9.94,73.76,22.06,66.76,32.06Z"/><g id="Lınes"><path class="cls-2" d="M77.69,32.72,9.15,47a3.46,3.46,0,0,1-3.89-2.39L.56,32.88A2.94,2.94,0,0,1,2.83,29.4L73.38,12.17a2.94,2.94,0,0,1,3.48,2.27L80,29.24A2.93,2.93,0,0,1,77.69,32.72Z"/><path class="cls-2" d="M15.26,37.56s0-7,8-3,6-6,12-6,7,2,10,0,3-3,9,0,2-8,8-6,7,4,8,2,1-1,1-2"/><path class="cls-2" d="M76.64,13.81a3,3,0,0,1,2.43,2.3l3.11,14.81a3,3,0,0,1-2.27,3.48L11.36,48.63a3.57,3.57,0,0,1-3.64-1.74"/></g></g></g></svg>